Coordinates
version=1
nRows=26
nColumns=24
inDegrees=yes

Units are S.I. units (second, meters, Newtons, ...)
Angles are in degrees.

endheader
time	pelvis_tilt	pelvis_list	pelvis_rotation	pelvis_tx	pelvis_ty	pelvis_tz	hip_flexion_r	hip_adduction_r	hip_rotation_r	knee_angle_r	ankle_angle_r	subtalar_angle_r	mtp_angle_r	hip_flexion_l	hip_adduction_l	hip_rotation_l	knee_angle_l	ankle_angle_l	subtalar_angle_l	mtp_angle_l	lumbar_extension	lumbar_bending	lumbar_rotation
      3.57000000	     -1.34028821	     -2.89034917	      4.06244391	     -0.00044205	      0.97792774	      0.02198631	     -8.42976017	      4.92450600	    -17.32598005	     -8.42107264	     19.46162085	      0.00000000	      0.00000000	     23.82596422	     -3.97308382	     -7.46580543	     -7.26534140	      4.24680533	      0.00000000	      0.00000000	    -18.26082177	      3.22447451	     -0.50580919
      3.58000000	     -1.17011963	     -2.95161382	      4.09962720	      0.00050057	      0.97689577	      0.01972019	     -9.06501945	      4.89336627	    -17.29787938	     -8.64826441	     19.74410196	      0.00000000	      0.00000000	     24.59768918	     -4.01998133	     -6.87446299	    -10.14940652	      5.37336078	      0.00000000	      0.00000000	    -18.45034041	      3.17271447	     -0.70058784
      3.59000000	     -0.87018886	     -2.85757881	      3.96343315	      0.00175649	      0.97632264	      0.01768804	     -9.79954335	      4.66897636	    -17.12681973	     -9.00141025	     19.96862268	      0.00000000	      0.00000000	     24.94621859	     -3.96836338	     -6.57397672	    -12.61480722	      5.69601664	      0.00000000	      0.00000000	    -18.76612935	      2.87752248	     -0.75983611
      3.60000000	     -0.61819512	     -2.66988868	      3.73906520	      0.00328619	      0.97592320	      0.01555297	    -10.46943900	      4.29063074	    -16.93926365	     -9.39381487	     19.90781678	      0.00000000	      0.00000000	     25.14673893	     -3.81647889	     -6.39057691	    -14.76312976	      5.44998779	      0.00000000	      0.00000000	    -18.98226170	      2.46894693	     -0.76300310
      3.61000000	     -0.21215741	     -2.74333163	      3.61904179	      0.00498714	      0.97565221	      0.01328916	    -11.20018565	      4.19630517	    -16.69012308	    -10.00140282	     20.04898846	      0.00000000	      0.00000000	     25.34698698	     -3.88530038	     -5.78309051	    -17.25896041	      6.23392804	      0.00000000	      0.00000000	    -19.31240296	      2.37533884	     -0.78044922
      3.62000000	      0.08311055	     -2.72067742	      3.40898872	      0.00687210	      0.97554997	      0.01110997	    -11.74359485	      3.94208383	    -16.44692172	    -10.74232170	     19.84713426	      0.00000000	      0.00000000	     25.41196227	     -3.85944747	     -5.37537079	    -19.26224775	      6.46919748	      0.00000000	      0.00000000	    -19.47686956	      2.13163324	     -0.76947956
      3.63000000	      0.38859525	     -2.71047107	      3.15177632	      0.00890585	      0.97568425	      0.00894791	    -12.17622350	      3.64602434	    -16.15540670	    -11.71610748	     19.55249773	      0.00000000	      0.00000000	     25.32195840	     -3.84362712	     -5.00784869	    -20.99457343	      6.79913914	      0.00000000	      0.00000000	    -19.61933475	      1.88456030	     -0.71076649
      3.64000000	      0.64631978	     -2.62133869	      2.92497209	      0.01107256	      0.97605063	      0.00672816	    -12.49646407	      3.23585781	    -16.00192244	    -12.79199157	     18.96581514	      0.00000000	      0.00000000	     25.10030484	     -3.72332129	     -4.74881503	    -22.35251254	      6.76778779	      0.00000000	      0.00000000	    -19.67434659	      1.55164545	     -0.74752222
      3.65000000	      0.99439166	     -2.66360138	      2.54890690	      0.01311645	      0.97672040	      0.00458829	    -12.58585575	      2.84256690	    -15.57679490	    -14.49428265	     18.39362637	      0.00000000	      0.00000000	     24.67218948	     -3.77450967	     -4.55623074	    -23.53406095	      7.52027934	      0.00000000	      0.00000000	    -19.83933402	      1.34748014	     -0.57119129
      3.66000000	      1.29618425	     -2.65650325	      2.36221820	      0.01520620	      0.97756645	      0.00227030	    -12.61489613	      2.42337846	    -15.47895979	    -16.16550708	     17.43723024	      0.00000000	      0.00000000	     24.23908088	     -3.71396819	     -4.36449164	    -24.54203125	      7.71094946	      0.00000000	      0.00000000	    -19.94315997	      1.12280812	     -0.67449719
      3.67000000	      1.51722334	     -2.62141663	      1.79630457	      0.01715890	      0.97851094	      0.00024273	    -12.18013040	      1.78746191	    -14.94490123	    -18.52534786	     16.43198962	      0.00000000	      0.00000000	     23.62257177	     -3.73774828	     -4.57815638	    -25.15057093	      8.57550239	      0.00000000	      0.00000000	    -19.96951384	      0.79980875	     -0.38994964
      3.68000000	      1.71525622	     -2.60265816	      1.36961304	      0.01906355	      0.97956590	     -0.00173244	    -11.61441837	      1.19228859	    -14.63480244	    -21.01853696	     15.27429093	      0.00000000	      0.00000000	     23.00870209	     -3.75804180	     -4.80198056	    -25.67030612	      9.09241732	      0.00000000	      0.00000000	    -19.96030567	      0.49675178	     -0.29822037
      3.69000000	      1.88991556	     -2.56652140	      0.93628764	      0.02081196	      0.98068388	     -0.00389872	    -10.84053794	      0.52609193	    -14.31059134	    -23.78863702	     13.99545811	      0.00000000	      0.00000000	     22.34013745	     -3.74874877	     -5.16355353	    -26.03822882	      9.66559296	      0.00000000	      0.00000000	    -19.94595873	      0.22357445	     -0.24331227
      3.70000000	      2.05897720	     -2.50220572	      0.54318779	      0.02245181	      0.98185773	     -0.00614637	     -9.93413910	     -0.18372227	    -14.02454436	    -26.72894018	     12.60605389	      0.00000000	      0.00000000	     21.61051506	     -3.69665670	     -5.62338438	    -26.26244672	     10.28277767	      0.00000000	      0.00000000	    -19.93539573	     -0.04710532	     -0.23312368
      3.71000000	      2.27529099	     -2.42351229	      0.23574080	      0.02389749	      0.98311786	     -0.00847738	     -8.97882638	     -0.88803054	    -13.80308010	    -29.76254969	     11.14901042	      0.00000000	      0.00000000	     20.81848019	     -3.60192510	     -6.03262777	    -26.44745265	     10.91108205	      0.00000000	      0.00000000	    -19.99880829	     -0.29898690	     -0.35314988
      3.72000000	      2.36867389	     -2.28839776	     -0.17071272	      0.02517937	      0.98423151	     -0.01063773	     -7.70587889	     -1.68336173	    -13.48648486	    -33.06246869	     10.03912436	      0.00000000	      0.00000000	     20.04247245	     -3.48971583	     -6.73039843	    -26.41922314	     11.42695546	      0.00000000	      0.00000000	    -19.93090359	     -0.62952383	     -0.40546113
      3.73000000	      2.46992498	     -2.15522256	     -0.45451580	      0.02623851	      0.98530285	     -0.01289019	     -6.40625006	     -2.41914573	    -13.22970538	    -36.34484022	      9.11785974	      0.00000000	      0.00000000	     19.30617535	     -3.33728072	     -7.28516209	    -26.42127407	     11.88851892	      0.00000000	      0.00000000	    -19.89584325	     -0.90351596	     -0.58975651
      3.74000000	      2.59339491	     -2.00729587	     -0.64951239	      0.02711567	      0.98640314	     -0.01521382	     -5.11667609	     -3.12904176	    -13.03354580	    -39.55629969	      8.41239899	      0.00000000	      0.00000000	     18.53009458	     -3.13428068	     -7.77701569	    -26.35241396	     12.35581395	      0.00000000	      0.00000000	    -19.90018519	     -1.15591221	     -0.86281229
      3.75000000	      2.75935880	     -1.89779293	     -0.72677916	      0.02783526	      0.98759955	     -0.01765685	     -3.90667810	     -3.76105332	    -12.98828020	    -42.61241090	      7.98050119	      0.00000000	      0.00000000	     17.70950223	     -2.92463945	     -8.13910701	    -26.23384456	     12.85391270	      0.00000000	      0.00000000	    -19.97063381	     -1.31533909	     -1.22598880
      3.76000000	      2.93223830	     -1.80120358	     -0.72816232	      0.02838369	      0.98879337	     -0.02006994	     -2.71994045	     -4.31890364	    -12.94559609	    -45.54571821	      7.93001345	      0.00000000	      0.00000000	     16.90516830	     -2.70302412	     -8.36377770	    -26.12181029	     13.25422762	      0.00000000	      0.00000000	    -20.05910706	     -1.43536523	     -1.61335000
      3.77000000	      3.05122006	     -1.70066159	     -0.71036787	      0.02866027	      0.98994067	     -0.02243627	     -1.44855369	     -4.86036272	    -12.93987132	    -48.38892490	      8.25031232	      0.00000000	      0.00000000	     16.13483995	     -2.46556212	     -8.53362970	    -25.91276466	     13.60082727	      0.00000000	      0.00000000	    -20.10532106	     -1.54079054	     -2.02286645
      3.78000000	      3.02020853	     -1.64360342	     -0.68874006	      0.02872061	      0.99094233	     -0.02467474	     -0.03416734	     -5.34141503	    -13.03988895	    -51.05161842	      8.83538686	      0.00000000	      0.00000000	     15.49285904	     -2.28044035	     -8.73615555	    -25.58049631	     13.75830744	      0.00000000	      0.00000000	    -19.99068724	     -1.60049627	     -2.36423237
      3.79000000	      3.06322454	     -1.62424405	     -0.51809330	      0.02870730	      0.99208661	     -0.02708213	      1.21650774	     -5.73387262	    -13.21732531	    -53.43838762	      9.52305355	      0.00000000	      0.00000000	     14.81385852	     -2.08335878	     -8.74017060	    -25.29675224	     14.01924544	      0.00000000	      0.00000000	    -19.95650638	     -1.56567762	     -2.77120536
      3.80000000	      3.27263188	     -1.89020632	     -0.26265181	      0.02840117	      0.99367712	     -0.02944859	      2.18139983	     -5.77702868	    -13.53757568	    -55.38377530	      9.95940787	      0.00000000	      0.00000000	     13.98727476	     -2.18396094	     -8.57316931	    -25.01932536	     14.21814912	      0.00000000	      0.00000000	    -20.16709982	     -1.19598173	     -3.11066279
      3.81000000	      3.23755451	     -1.78460850	     -0.09627371	      0.02812028	      0.99479205	     -0.03184619	      3.46156933	     -6.30340356	    -13.89464000	    -57.34085261	     10.96370869	      0.00000000	      0.00000000	     13.32502641	     -1.85806136	     -8.41732550	    -24.55849359	     14.50954340	      0.00000000	      0.00000000	    -20.04991416	     -1.24325572	     -3.46204313
      3.82000000	      3.39205552	     -2.10051216	      0.13466163	      0.02757254	      0.99642842	     -0.03402731	      4.42835533	     -6.28624891	    -14.29384579	    -58.77651115	     11.21443707	      0.00000000	      0.00000000	     12.54640205	     -2.03560032	     -8.30813833	    -24.23792879	     14.58920917	      0.00000000	      0.00000000	    -20.20190624	     -0.82681537	     -3.65683711
